<svg width="308" height="55" viewBox="0 0 308 55" fill="none" xmlns="http://www.w3.org/2000/svg">
<g clip-path="url(#clip0_0_7)">
<path d="M19 40.4687C13.3444 40.4799 7.84121 38.6361 3.33392 35.22L0.764763 39.4231C0.606425 39.6857 0.556734 39.9996 0.626255 40.2982C0.695777 40.5968 0.879027 40.8565 1.13704 41.0221C6.43277 44.5335 12.6459 46.4062 19 46.4062C25.3541 46.4062 31.5673 44.5335 36.863 41.0221C37.121 40.8565 37.3042 40.5968 37.3738 40.2982C37.4433 39.9996 37.3936 39.6857 37.2353 39.4231L34.6661 35.22C30.1588 38.6361 24.6556 40.4799 19 40.4687Z" fill="#8A490E"/>
<path d="M37.2353 39.4231L34.6661 35.22C34.2617 35.5263 33.8455 35.8173 33.4228 36.1005L35.454 39.4255C35.6123 39.688 35.662 40.002 35.5925 40.3006C35.523 40.5992 35.3397 40.8589 35.0817 41.0245C30.0445 44.3799 24.16 46.2401 18.1094 46.3896C18.4062 46.3973 18.7031 46.4062 19 46.4062C25.3563 46.4216 31.5739 44.5475 36.863 41.0221C37.121 40.8565 37.3042 40.5968 37.3738 40.2982C37.4433 39.9996 37.3936 39.6857 37.2353 39.4231Z" fill="#A16D3E"/>
<path d="M34.6662 35.22C30.1534 38.6258 24.6537 40.4682 19.0001 40.4682C13.3464 40.4682 7.84672 38.6258 3.33398 35.22L15.5599 15.2225L19.0001 9.59375L22.4403 15.2225L34.6662 35.22Z" fill="#F6B361"/>
<path d="M22.4402 15.2225L19 9.59375L18.1094 11.0508L20.6589 15.2225L32.8848 35.22C28.6199 38.4511 23.4572 40.2786 18.1094 40.4503C18.4062 40.4604 18.7031 40.4688 19 40.4688C24.6555 40.4796 30.1586 38.6358 34.6661 35.22L22.4402 15.2225Z" fill="#F8C281"/>
<path d="M22.3548 15.2225C21.8558 15.4284 21.321 15.5333 20.7813 15.5312C20.1649 15.5307 19.5565 15.3928 19.0001 15.1275C18.4437 15.3928 17.8352 15.5307 17.2188 15.5312C16.6791 15.5333 16.1443 15.4284 15.6454 15.2225L19.0001 9.59375L22.3548 15.2225Z" fill="#FFFF97"/>
<path d="M19 9.59375L18.1094 11.0882L20.5734 15.2225C20.3539 15.3123 20.1268 15.3824 19.8948 15.4321C20.7168 15.6161 21.5756 15.5429 22.3547 15.2225L19 9.59375Z" fill="#FFFFAC"/>
<path d="M37.7417 39.1138L35.1726 34.9106L19.5148 9.29686L19.5101 9.28974L19.5071 9.28439C19.488 9.25595 19.4659 9.22967 19.4412 9.20602C19.4311 9.19474 19.4234 9.18108 19.4127 9.17099C19.2974 9.07328 19.1512 9.01965 19 9.01965C18.8489 9.01965 18.7027 9.07328 18.5874 9.17099C18.5761 9.18167 18.5678 9.19592 18.5571 9.2078C18.5332 9.23114 18.5117 9.2568 18.493 9.28439L18.49 9.28914L18.4852 9.29686L2.82746 34.9106L0.258304 39.1138C0.0208864 39.5073 -0.054603 39.9776 0.0477239 40.4257C0.150051 40.8738 0.422213 41.2647 0.806929 41.5161C6.20046 45.0925 12.5285 47 19 47C25.4716 47 31.7996 45.0925 37.1931 41.5161C37.5778 41.2647 37.85 40.8738 37.9523 40.4257C38.0546 39.9776 37.9792 39.5073 37.7417 39.1138ZM33.6656 35.2141C33.5326 35.3085 33.3997 35.4017 33.2655 35.4931C33.1206 35.5925 32.9747 35.6898 32.8279 35.7852C32.6901 35.8749 32.5518 35.9634 32.4122 36.0506C32.2727 36.1379 32.1183 36.2323 31.9699 36.3208C31.8215 36.4093 31.6861 36.4894 31.543 36.5708C31.3999 36.6521 31.2461 36.7382 31.0947 36.8201C30.9433 36.9021 30.8044 36.9775 30.6583 37.0529C30.5122 37.1283 30.3537 37.2079 30.2005 37.2833C30.0473 37.3587 29.9036 37.4287 29.757 37.4982C29.6103 37.5677 29.4476 37.6401 29.2927 37.709C29.1377 37.7779 28.9911 37.8432 28.8391 37.9067C28.6871 37.9702 28.525 38.0355 28.3641 38.0979C28.2031 38.1602 28.0601 38.2166 27.9069 38.276C27.7537 38.3354 27.5839 38.3948 27.4218 38.4494C27.2597 38.504 27.1154 38.5575 26.9616 38.6085C26.7977 38.662 26.6327 38.7124 26.4676 38.7629C26.3132 38.8098 26.1589 38.8585 26.0039 38.9024C25.8353 38.9505 25.6661 38.9945 25.4962 39.0384C25.3425 39.0788 25.1887 39.1209 25.0343 39.1571C24.8609 39.1993 24.6858 39.2361 24.5118 39.2759C24.3586 39.3097 24.206 39.3448 24.0522 39.3756C23.8741 39.4119 23.6906 39.4427 23.5096 39.4748C23.3599 39.5015 23.2127 39.53 23.0607 39.5544C22.8719 39.584 22.6819 39.6084 22.4919 39.6345C22.347 39.6541 22.2033 39.6761 22.0578 39.6939C21.8583 39.7176 21.6576 39.7355 21.457 39.7533C21.3198 39.7663 21.1832 39.7824 21.0455 39.793C20.8228 39.8109 20.5978 39.8215 20.374 39.8334C20.2552 39.8394 20.1418 39.8489 20.0254 39.8536C19.6858 39.8679 19.344 39.875 19 39.875C18.656 39.875 18.3134 39.8683 17.9722 39.8548C17.8535 39.85 17.7401 39.8405 17.6237 39.8346C17.3999 39.8227 17.1748 39.812 16.9522 39.7942C16.8144 39.7835 16.6779 39.7675 16.5407 39.7545C16.34 39.7355 16.1393 39.7176 15.9398 39.6951C15.7944 39.6779 15.6501 39.6559 15.5052 39.6357C15.3158 39.6096 15.1258 39.5852 14.937 39.5555C14.7868 39.5312 14.6401 39.5027 14.4875 39.476C14.3094 39.4439 14.1253 39.413 13.9454 39.3768C13.7916 39.346 13.6391 39.3109 13.4859 39.2771C13.3119 39.2385 13.1367 39.2017 12.9634 39.1583C12.809 39.1209 12.6552 39.0788 12.5014 39.0396C12.3316 38.9956 12.1624 38.9517 11.9938 38.9036C11.8388 38.8597 11.6844 38.811 11.5301 38.7641C11.365 38.7136 11.1999 38.6631 11.0361 38.6097C10.8823 38.5586 10.7291 38.504 10.5759 38.4506C10.4138 38.3912 10.2517 38.3372 10.0908 38.2772C9.9299 38.2172 9.78562 38.1585 9.63362 38.0991C9.48162 38.0397 9.31834 37.9738 9.15862 37.9079C8.9989 37.842 8.8558 37.7773 8.70499 37.7102C8.55418 37.6431 8.39446 37.5718 8.24068 37.4994C8.0869 37.427 7.9438 37.3575 7.79655 37.2845C7.6493 37.2114 7.49137 37.133 7.33996 37.0547C7.18855 36.9763 7.04784 36.9003 6.90296 36.8213C6.75809 36.7424 6.60312 36.6569 6.45468 36.572C6.30624 36.487 6.16968 36.4063 6.02777 36.322C5.88587 36.2377 5.7309 36.1439 5.58543 36.0518C5.43996 35.9598 5.30815 35.8737 5.1698 35.7864C5.03146 35.6991 4.87709 35.5935 4.73221 35.4943C4.59802 35.4029 4.46502 35.3096 4.33202 35.2152C4.26196 35.1654 4.19249 35.1143 4.12302 35.0632L15.83 15.9178C16.8719 16.2334 17.9905 16.1833 19 15.7759C20.009 16.1861 21.1284 16.2364 22.1701 15.9184L33.8735 35.062C33.804 35.1131 33.7345 35.1642 33.6656 35.2141ZM21.4564 14.8745C20.7107 15.0141 19.9401 14.9147 19.2541 14.5907C19.1747 14.5531 19.0879 14.5336 19 14.5336C18.9121 14.5336 18.8253 14.5531 18.7459 14.5907C18.06 14.9146 17.2893 15.0139 16.5437 14.8745L19 10.7533L21.4564 14.8745ZM36.5329 40.5281C31.3348 43.9741 25.2366 45.8118 19 45.8118C12.7635 45.8118 6.66523 43.9741 1.46718 40.5281C1.33642 40.4479 1.24256 40.3194 1.20599 40.1704C1.16942 40.0215 1.19308 39.8641 1.27184 39.7325L3.50315 36.0833C3.56549 36.1278 3.62962 36.1694 3.69196 36.2133C3.82377 36.3071 3.95677 36.3986 4.09037 36.4894C4.2487 36.5983 4.40921 36.7054 4.5719 36.8106C4.70727 36.8985 4.84383 36.9846 4.9804 37.0701C5.14309 37.1714 5.30617 37.2704 5.46965 37.367C5.60898 37.4493 5.74871 37.5307 5.88884 37.611C6.05449 37.7054 6.22015 37.7975 6.38759 37.8877C6.52929 37.9669 6.67179 38.0427 6.81508 38.1151C6.98252 38.2018 7.15095 38.2865 7.32037 38.3692C7.46584 38.4411 7.6119 38.5117 7.75855 38.58C7.92896 38.6602 8.09996 38.7368 8.27215 38.8128C8.41999 38.8781 8.56902 38.9434 8.71687 39.0057C8.89024 39.0788 9.06421 39.1482 9.23877 39.2171C9.38899 39.2765 9.5398 39.3359 9.69121 39.3952C9.86934 39.4606 10.0439 39.5229 10.2214 39.5846C10.3734 39.6381 10.5254 39.6915 10.6792 39.742C10.8573 39.8014 11.0355 39.8554 11.2189 39.9106C11.3727 39.9575 11.5259 40.005 11.6809 40.049C11.8637 40.1012 12.0478 40.1487 12.2325 40.1968C12.3862 40.2372 12.5394 40.2787 12.6938 40.3155C12.8814 40.3607 13.0696 40.4011 13.2585 40.4426C13.4128 40.4759 13.566 40.5115 13.721 40.5424C13.9134 40.581 14.1075 40.6142 14.3005 40.648C14.4531 40.6754 14.6045 40.7039 14.7571 40.7282C14.9572 40.7603 15.1585 40.7876 15.3591 40.8131C15.5082 40.8333 15.656 40.8565 15.8056 40.8725C16.017 40.898 16.2302 40.9164 16.4433 40.9366C16.5829 40.9497 16.7218 40.9657 16.859 40.977C17.0965 40.9954 17.334 41.0073 17.5715 41.0197C17.6902 41.0257 17.809 41.0352 17.9277 41.0399C18.2836 41.055 18.641 41.0625 19 41.0625C19.359 41.0625 19.7167 41.0554 20.0729 41.0411C20.1917 41.0364 20.3104 41.0269 20.4262 41.0209C20.6637 41.0085 20.9012 40.9966 21.1387 40.9782C21.2782 40.9675 21.4172 40.9509 21.5543 40.9378C21.7675 40.9176 21.9806 40.8992 22.1926 40.8737C22.3422 40.8565 22.4895 40.8333 22.6391 40.8143C22.8398 40.7876 23.0411 40.7615 23.2412 40.7294C23.3938 40.705 23.5452 40.6765 23.6978 40.6492C23.8907 40.6154 24.0849 40.5821 24.2773 40.5435C24.4322 40.5127 24.5854 40.477 24.7398 40.4438C24.9286 40.4022 25.1168 40.3619 25.3045 40.3167C25.4588 40.2793 25.612 40.2378 25.7658 40.198C25.9505 40.1499 26.1345 40.1024 26.3174 40.0501C26.4724 40.0062 26.6256 39.9587 26.7793 39.9118C26.9575 39.8566 27.1403 39.802 27.3191 39.7432C27.4728 39.6927 27.6248 39.6393 27.7768 39.5858C27.955 39.5265 28.1331 39.4617 28.3071 39.3964C28.4585 39.337 28.6087 39.2777 28.7589 39.2183C28.9341 39.1488 29.108 39.0794 29.2814 39.0063C29.4304 38.944 29.5783 38.8793 29.7261 38.814C29.8977 38.7374 30.0693 38.6608 30.2397 38.5806C30.3864 38.5123 30.5324 38.4417 30.6779 38.3698C30.8469 38.2867 31.0153 38.202 31.1832 38.1157C31.3261 38.0417 31.4686 37.9659 31.6107 37.8883C31.7781 37.798 31.9438 37.706 32.1094 37.6116C32.2496 37.5324 32.3893 37.4511 32.5286 37.3676C32.6925 37.2702 32.8556 37.1712 33.0179 37.0707C33.1544 36.9852 33.291 36.8991 33.4264 36.8112C33.5879 36.7059 33.7484 36.5989 33.9079 36.49C34.0415 36.3992 34.1745 36.3077 34.3063 36.2139C34.3686 36.17 34.4328 36.1284 34.4951 36.0839L36.7252 39.7337C36.8039 39.8648 36.8278 40.0217 36.7918 40.1703C36.7558 40.3189 36.6628 40.4475 36.5329 40.5281Z" fill="black"/>
<path d="M19 22.6562C19.9838 22.6562 20.7812 21.8588 20.7812 20.875C20.7812 19.8912 19.9838 19.0938 19 19.0938C18.0162 19.0938 17.2188 19.8912 17.2188 20.875C17.2188 21.8588 18.0162 22.6562 19 22.6562Z" fill="#FF0000"/>
<path d="M19 23.25C18.5303 23.25 18.0711 23.1107 17.6805 22.8497C17.29 22.5888 16.9855 22.2178 16.8058 21.7839C16.626 21.3499 16.579 20.8724 16.6706 20.4117C16.7623 19.951 16.9885 19.5278 17.3206 19.1956C17.6528 18.8635 18.076 18.6373 18.5367 18.5456C18.9974 18.454 19.4749 18.501 19.9089 18.6808C20.3428 18.8605 20.7138 19.165 20.9747 19.5555C21.2357 19.9461 21.375 20.4053 21.375 20.875C21.375 21.5049 21.1248 22.109 20.6794 22.5544C20.234 22.9998 19.6299 23.25 19 23.25ZM19 19.6875C18.7651 19.6875 18.5355 19.7571 18.3403 19.8876C18.145 20.0181 17.9928 20.2036 17.9029 20.4206C17.813 20.6376 17.7895 20.8763 17.8353 21.1067C17.8811 21.337 17.9942 21.5486 18.1603 21.7147C18.3264 21.8808 18.538 21.9939 18.7683 22.0397C18.9987 22.0855 19.2374 22.062 19.4544 21.9721C19.6714 21.8822 19.8569 21.73 19.9874 21.5347C20.1179 21.3395 20.1875 21.1099 20.1875 20.875C20.1875 20.5601 20.0624 20.258 19.8397 20.0353C19.617 19.8126 19.3149 19.6875 19 19.6875Z" fill="black"/>
<path d="M10.6875 35.125C11.6713 35.125 12.4688 34.3275 12.4688 33.3438C12.4688 32.36 11.6713 31.5625 10.6875 31.5625C9.70374 31.5625 8.90625 32.36 8.90625 33.3438C8.90625 34.3275 9.70374 35.125 10.6875 35.125Z" fill="#FF0000"/>
<path d="M10.6875 35.7188C10.2178 35.7188 9.75859 35.5795 9.36802 35.3185C8.97746 35.0575 8.67305 34.6866 8.49329 34.2526C8.31353 33.8187 8.2665 33.3411 8.35814 32.8804C8.44978 32.4197 8.67597 31.9965 9.00812 31.6644C9.34027 31.3322 9.76346 31.106 10.2242 31.0144C10.6849 30.9227 11.1624 30.9698 11.5964 31.1495C12.0303 31.3293 12.4013 31.6337 12.6622 32.0243C12.9232 32.4148 13.0625 32.874 13.0625 33.3438C13.0625 33.9736 12.8123 34.5777 12.3669 35.0231C11.9215 35.4685 11.3174 35.7188 10.6875 35.7188ZM10.6875 32.1563C10.4526 32.1563 10.223 32.2259 10.0278 32.3564C9.83248 32.4869 9.68027 32.6723 9.59039 32.8893C9.50052 33.1063 9.477 33.3451 9.52282 33.5754C9.56864 33.8058 9.68174 34.0174 9.84781 34.1834C10.0139 34.3495 10.2255 34.4626 10.4558 34.5084C10.6862 34.5543 10.925 34.5307 11.1419 34.4409C11.3589 34.351 11.5444 34.1988 11.6749 34.0035C11.8054 33.8082 11.875 33.5786 11.875 33.3438C11.875 33.0288 11.7499 32.7268 11.5272 32.5041C11.3045 32.2814 11.0024 32.1563 10.6875 32.1563Z" fill="black"/>
<path d="M27.3125 35.125C28.2963 35.125 29.0938 34.3275 29.0938 33.3438C29.0938 32.36 28.2963 31.5625 27.3125 31.5625C26.3287 31.5625 25.5312 32.36 25.5312 33.3438C25.5312 34.3275 26.3287 35.125 27.3125 35.125Z" fill="#FF0000"/>
<path d="M27.3125 35.7188C26.8428 35.7188 26.3836 35.5795 25.993 35.3185C25.6025 35.0575 25.298 34.6866 25.1183 34.2526C24.9385 33.8187 24.8915 33.3411 24.9831 32.8804C25.0748 32.4197 25.301 31.9965 25.6331 31.6644C25.9653 31.3322 26.3885 31.106 26.8492 31.0144C27.3099 30.9227 27.7874 30.9698 28.2214 31.1495C28.6553 31.3293 29.0263 31.6337 29.2872 32.0243C29.5482 32.4148 29.6875 32.874 29.6875 33.3438C29.6875 33.9736 29.4373 34.5777 28.9919 35.0231C28.5465 35.4685 27.9424 35.7188 27.3125 35.7188ZM27.3125 32.1563C27.0776 32.1563 26.848 32.2259 26.6528 32.3564C26.4575 32.4869 26.3053 32.6723 26.2154 32.8893C26.1255 33.1063 26.102 33.3451 26.1478 33.5754C26.1936 33.8058 26.3067 34.0174 26.4728 34.1834C26.6389 34.3495 26.8505 34.4626 27.0808 34.5084C27.3112 34.5543 27.5499 34.5307 27.7669 34.4409C27.9839 34.351 28.1694 34.1988 28.2999 34.0035C28.4304 33.8082 28.5 33.5786 28.5 33.3438C28.5 33.0288 28.3749 32.7268 28.1522 32.5041C27.9295 32.2814 27.6274 32.1563 27.3125 32.1563Z" fill="black"/>
<path d="M19 36.9062C19.9838 36.9062 20.7812 36.1088 20.7812 35.125C20.7812 34.1412 19.9838 33.3438 19 33.3438C18.0162 33.3438 17.2188 34.1412 17.2188 35.125C17.2188 36.1088 18.0162 36.9062 19 36.9062Z" fill="#FF0000"/>
<path d="M19 37.5C18.5303 37.5 18.0711 37.3607 17.6805 37.0997C17.29 36.8388 16.9855 36.4678 16.8058 36.0339C16.626 35.5999 16.579 35.1224 16.6706 34.6617C16.7623 34.201 16.9885 33.7778 17.3206 33.4456C17.6528 33.1135 18.076 32.8873 18.5367 32.7956C18.9974 32.704 19.4749 32.751 19.9089 32.9308C20.3428 33.1105 20.7138 33.415 20.9747 33.8055C21.2357 34.1961 21.375 34.6553 21.375 35.125C21.375 35.7549 21.1248 36.359 20.6794 36.8044C20.234 37.2498 19.6299 37.5 19 37.5ZM19 33.9375C18.7651 33.9375 18.5355 34.0071 18.3403 34.1376C18.145 34.2681 17.9928 34.4536 17.9029 34.6706C17.813 34.8876 17.7895 35.1263 17.8353 35.3567C17.8811 35.587 17.9942 35.7986 18.1603 35.9647C18.3264 36.1308 18.538 36.2439 18.7683 36.2897C18.9987 36.3355 19.2374 36.312 19.4544 36.2221C19.6714 36.1322 19.8569 35.98 19.9874 35.7847C20.1179 35.5895 20.1875 35.3599 20.1875 35.125C20.1875 34.8101 20.0624 34.508 19.8397 34.2853C19.617 34.0626 19.3149 33.9375 19 33.9375Z" fill="black"/>
<path d="M14.25 28.5938C15.2338 28.5938 16.0312 27.7963 16.0312 26.8125C16.0312 25.8287 15.2338 25.0312 14.25 25.0312C13.2662 25.0312 12.4688 25.8287 12.4688 26.8125C12.4688 27.7963 13.2662 28.5938 14.25 28.5938Z" fill="#FF0000"/>
<path d="M14.25 29.1875C13.7803 29.1875 13.3211 29.0482 12.9305 28.7872C12.54 28.5263 12.2355 28.1553 12.0558 27.7214C11.876 27.2874 11.829 26.8099 11.9206 26.3492C12.0123 25.8885 12.2385 25.4653 12.5706 25.1331C12.9028 24.801 13.326 24.5748 13.7867 24.4831C14.2474 24.3915 14.7249 24.4385 15.1589 24.6183C15.5928 24.798 15.9638 25.1025 16.2247 25.493C16.4857 25.8836 16.625 26.3428 16.625 26.8125C16.625 27.4424 16.3748 28.0465 15.9294 28.4919C15.484 28.9373 14.8799 29.1875 14.25 29.1875ZM14.25 25.625C14.0151 25.625 13.7855 25.6946 13.5903 25.8251C13.395 25.9556 13.2428 26.1411 13.1529 26.3581C13.063 26.5751 13.0395 26.8138 13.0853 27.0442C13.1311 27.2745 13.2442 27.4861 13.4103 27.6522C13.5764 27.8183 13.788 27.9314 14.0183 27.9772C14.2487 28.023 14.4875 27.9995 14.7044 27.9096C14.9214 27.8197 15.1069 27.6675 15.2374 27.4722C15.3679 27.277 15.4375 27.0474 15.4375 26.8125C15.4375 26.4976 15.3124 26.1955 15.0897 25.9728C14.867 25.7501 14.5649 25.625 14.25 25.625Z" fill="black"/>
<path d="M23.75 28.5938C24.7338 28.5938 25.5312 27.7963 25.5312 26.8125C25.5312 25.8287 24.7338 25.0312 23.75 25.0312C22.7662 25.0312 21.9688 25.8287 21.9688 26.8125C21.9688 27.7963 22.7662 28.5938 23.75 28.5938Z" fill="#FF0000"/>
<path d="M23.75 29.1875C23.2803 29.1875 22.8211 29.0482 22.4305 28.7872C22.04 28.5263 21.7355 28.1553 21.5558 27.7214C21.376 27.2874 21.329 26.8099 21.4206 26.3492C21.5123 25.8885 21.7385 25.4653 22.0706 25.1331C22.4028 24.801 22.826 24.5748 23.2867 24.4831C23.7474 24.3915 24.2249 24.4385 24.6589 24.6183C25.0928 24.798 25.4638 25.1025 25.7247 25.493C25.9857 25.8836 26.125 26.3428 26.125 26.8125C26.125 27.4424 25.8748 28.0465 25.4294 28.4919C24.984 28.9373 24.3799 29.1875 23.75 29.1875ZM23.75 25.625C23.5151 25.625 23.2855 25.6946 23.0903 25.8251C22.895 25.9556 22.7428 26.1411 22.6529 26.3581C22.563 26.5751 22.5395 26.8138 22.5853 27.0442C22.6311 27.2745 22.7442 27.4861 22.9103 27.6522C23.0764 27.8183 23.288 27.9314 23.5183 27.9772C23.7487 28.023 23.9874 27.9995 24.2044 27.9096C24.4214 27.8197 24.6069 27.6675 24.7374 27.4722C24.8679 27.277 24.9375 27.0474 24.9375 26.8125C24.9375 26.4976 24.8124 26.1955 24.5897 25.9728C24.367 25.7501 24.0649 25.625 23.75 25.625Z" fill="black"/>
<path d="M16.0312 31.5625H14.8438C14.6863 31.5625 14.5353 31.4999 14.4239 31.3886C14.3126 31.2772 14.25 31.1262 14.25 30.9688C14.25 30.8113 14.3126 30.6603 14.4239 30.5489C14.5353 30.4376 14.6863 30.375 14.8438 30.375H16.0312C16.1887 30.375 16.3397 30.4376 16.4511 30.5489C16.5624 30.6603 16.625 30.8113 16.625 30.9688C16.625 31.1262 16.5624 31.2772 16.4511 31.3886C16.3397 31.4999 16.1887 31.5625 16.0312 31.5625Z" fill="#D39953"/>
<path d="M23.1562 31.5625H21.9688C21.8113 31.5625 21.6603 31.4999 21.5489 31.3886C21.4376 31.2772 21.375 31.1262 21.375 30.9688C21.375 30.8113 21.4376 30.6603 21.5489 30.5489C21.6603 30.4376 21.8113 30.375 21.9688 30.375H23.1562C23.3137 30.375 23.4647 30.4376 23.5761 30.5489C23.6874 30.6603 23.75 30.8113 23.75 30.9688C23.75 31.1262 23.6874 31.2772 23.5761 31.3886C23.4647 31.4999 23.3137 31.5625 23.1562 31.5625Z" fill="#D39953"/>
<path d="M19.5938 26.8125H18.4062C18.2488 26.8125 18.0978 26.7499 17.9864 26.6386C17.8751 26.5272 17.8125 26.3762 17.8125 26.2188C17.8125 26.0613 17.8751 25.9103 17.9864 25.7989C18.0978 25.6876 18.2488 25.625 18.4062 25.625H19.5938C19.7512 25.625 19.9022 25.6876 20.0136 25.7989C20.1249 25.9103 20.1875 26.0613 20.1875 26.2188C20.1875 26.3762 20.1249 26.5272 20.0136 26.6386C19.9022 26.7499 19.7512 26.8125 19.5938 26.8125Z" fill="#D39953"/>
<path d="M14.8438 23.25H13.6562C13.4988 23.25 13.3478 23.1874 13.2364 23.0761C13.1251 22.9647 13.0625 22.8137 13.0625 22.6562C13.0625 22.4988 13.1251 22.3478 13.2364 22.2364C13.3478 22.1251 13.4988 22.0625 13.6562 22.0625H14.8438C15.0012 22.0625 15.1522 22.1251 15.2636 22.2364C15.3749 22.3478 15.4375 22.4988 15.4375 22.6562C15.4375 22.8137 15.3749 22.9647 15.2636 23.0761C15.1522 23.1874 15.0012 23.25 14.8438 23.25Z" fill="#D39953"/>
<path d="M24.3438 23.25H23.1562C22.9988 23.25 22.8478 23.1874 22.7364 23.0761C22.6251 22.9647 22.5625 22.8137 22.5625 22.6562C22.5625 22.4988 22.6251 22.3478 22.7364 22.2364C22.8478 22.1251 22.9988 22.0625 23.1562 22.0625H24.3438C24.5012 22.0625 24.6522 22.1251 24.7636 22.2364C24.8749 22.3478 24.9375 22.4988 24.9375 22.6562C24.9375 22.8137 24.8749 22.9647 24.7636 23.0761C24.6522 23.1874 24.5012 23.25 24.3438 23.25Z" fill="#D39953"/>
</g>
<path d="M56.576 24.216C55.968 24.216 55.504 24.048 55.184 23.712C54.864 23.376 54.704 22.904 54.704 22.296V8.976C54.704 8.352 54.864 7.88 55.184 7.56C55.52 7.24 55.992 7.08 56.6 7.08H62.432C64.32 7.08 65.776 7.56 66.8 8.52C67.824 9.464 68.336 10.784 68.336 12.48C68.336 14.176 67.824 15.504 66.8 16.464C65.776 17.424 64.32 17.904 62.432 17.904H58.424V22.296C58.424 22.904 58.264 23.376 57.944 23.712C57.64 24.048 57.184 24.216 56.576 24.216ZM58.424 15.024H61.808C62.768 15.024 63.496 14.808 63.992 14.376C64.504 13.944 64.76 13.312 64.76 12.48C64.76 11.648 64.504 11.024 63.992 10.608C63.496 10.192 62.768 9.984 61.808 9.984H58.424V15.024ZM72.5135 24.216C71.9055 24.216 71.4415 24.048 71.1215 23.712C70.8015 23.376 70.6415 22.904 70.6415 22.296V8.784C70.6415 8.176 70.8015 7.704 71.1215 7.368C71.4415 7.032 71.9055 6.864 72.5135 6.864C73.1055 6.864 73.5615 7.032 73.8815 7.368C74.2015 7.704 74.3615 8.176 74.3615 8.784V22.296C74.3615 22.904 74.2015 23.376 73.8815 23.712C73.5775 24.048 73.1215 24.216 72.5135 24.216ZM78.8705 24C78.3905 24 77.9985 23.904 77.6945 23.712C77.3905 23.504 77.1825 23.232 77.0705 22.896C76.9745 22.544 76.9745 22.16 77.0705 21.744C77.1825 21.328 77.4065 20.912 77.7425 20.496L86.4785 9.048V10.176H78.5825C78.0545 10.176 77.6465 10.04 77.3585 9.768C77.0865 9.496 76.9505 9.112 76.9505 8.616C76.9505 8.12 77.0865 7.744 77.3585 7.488C77.6465 7.216 78.0545 7.08 78.5825 7.08H88.2305C88.7265 7.08 89.1185 7.184 89.4065 7.392C89.7105 7.584 89.9185 7.848 90.0305 8.184C90.1425 8.52 90.1425 8.904 90.0305 9.336C89.9185 9.752 89.6945 10.168 89.3585 10.584L80.6225 22.008V20.904H88.9025C89.4305 20.904 89.8305 21.04 90.1025 21.312C90.3905 21.568 90.5345 21.944 90.5345 22.44C90.5345 22.952 90.3905 23.344 90.1025 23.616C89.8305 23.872 89.4305 24 88.9025 24H78.8705ZM93.6361 24C93.1561 24 92.7641 23.904 92.4601 23.712C92.1561 23.504 91.9481 23.232 91.8361 22.896C91.7401 22.544 91.7401 22.16 91.8361 21.744C91.9481 21.328 92.1721 20.912 92.5081 20.496L101.244 9.048V10.176H93.3481C92.8201 10.176 92.4121 10.04 92.1241 9.768C91.8521 9.496 91.7161 9.112 91.7161 8.616C91.7161 8.12 91.8521 7.744 92.1241 7.488C92.4121 7.216 92.8201 7.08 93.3481 7.08H102.996C103.492 7.08 103.884 7.184 104.172 7.392C104.476 7.584 104.684 7.848 104.796 8.184C104.908 8.52 104.908 8.904 104.796 9.336C104.684 9.752 104.46 10.168 104.124 10.584L95.3881 22.008V20.904H103.668C104.196 20.904 104.596 21.04 104.868 21.312C105.156 21.568 105.3 21.944 105.3 22.44C105.3 22.952 105.156 23.344 104.868 23.616C104.596 23.872 104.196 24 103.668 24H93.6361ZM107.543 24.216C107.095 24.216 106.727 24.112 106.439 23.904C106.167 23.696 105.991 23.416 105.911 23.064C105.847 22.712 105.919 22.32 106.127 21.888L112.271 8.424C112.527 7.88 112.831 7.488 113.183 7.248C113.535 6.992 113.943 6.864 114.407 6.864C114.871 6.864 115.279 6.992 115.631 7.248C115.983 7.488 116.279 7.88 116.519 8.424L122.711 21.888C122.919 22.32 122.991 22.72 122.927 23.088C122.879 23.44 122.719 23.72 122.447 23.928C122.175 24.12 121.823 24.216 121.391 24.216C120.847 24.216 120.423 24.088 120.119 23.832C119.831 23.576 119.575 23.176 119.351 22.632L117.911 19.296L119.399 20.328H109.391L110.879 19.296L109.463 22.632C109.223 23.192 108.967 23.6 108.695 23.856C108.439 24.096 108.055 24.216 107.543 24.216ZM114.359 11.04L111.287 18.36L110.639 17.424H118.151L117.503 18.36L114.407 11.04H114.359ZM127.078 24C126.454 24 125.974 23.832 125.638 23.496C125.302 23.16 125.134 22.68 125.134 22.056V9.024C125.134 8.4 125.302 7.92 125.638 7.584C125.974 7.248 126.454 7.08 127.078 7.08H132.886C134.086 7.08 135.11 7.256 135.958 7.608C136.806 7.96 137.446 8.464 137.878 9.12C138.326 9.776 138.55 10.56 138.55 11.472C138.55 12.48 138.262 13.336 137.686 14.04C137.11 14.744 136.318 15.216 135.31 15.456V15.072C136.478 15.28 137.382 15.744 138.022 16.464C138.678 17.168 139.006 18.088 139.006 19.224C139.006 20.728 138.486 21.904 137.446 22.752C136.406 23.584 134.974 24 133.15 24H127.078ZM128.686 21.24H132.646C133.606 21.24 134.31 21.056 134.758 20.688C135.206 20.304 135.43 19.744 135.43 19.008C135.43 18.272 135.206 17.72 134.758 17.352C134.31 16.984 133.606 16.8 132.646 16.8H128.686V21.24ZM128.686 14.04H132.238C133.166 14.04 133.854 13.864 134.302 13.512C134.75 13.16 134.974 12.632 134.974 11.928C134.974 11.24 134.75 10.72 134.302 10.368C133.854 10.016 133.166 9.84 132.238 9.84H128.686V14.04ZM143.765 24C143.141 24 142.661 23.832 142.325 23.496C141.989 23.16 141.821 22.68 141.821 22.056V9.024C141.821 8.4 141.989 7.92 142.325 7.584C142.661 7.248 143.141 7.08 143.765 7.08H152.141C152.621 7.08 152.981 7.208 153.221 7.464C153.477 7.704 153.605 8.056 153.605 8.52C153.605 9 153.477 9.368 153.221 9.624C152.981 9.864 152.621 9.984 152.141 9.984H145.373V13.944H151.589C152.085 13.944 152.453 14.072 152.693 14.328C152.949 14.568 153.077 14.928 153.077 15.408C153.077 15.888 152.949 16.256 152.693 16.512C152.453 16.752 152.085 16.872 151.589 16.872H145.373V21.096H152.141C152.621 21.096 152.981 21.224 153.221 21.48C153.477 21.72 153.605 22.072 153.605 22.536C153.605 23.016 153.477 23.384 153.221 23.64C152.981 23.88 152.621 24 152.141 24H143.765ZM158.224 24.216C157.616 24.216 157.152 24.048 156.832 23.712C156.512 23.376 156.352 22.904 156.352 22.296V8.76C156.352 8.152 156.512 7.688 156.832 7.368C157.152 7.032 157.616 6.864 158.224 6.864C158.816 6.864 159.272 7.032 159.592 7.368C159.912 7.688 160.072 8.152 160.072 8.76V14.448H160.12L166.504 7.776C166.776 7.488 167.056 7.272 167.344 7.128C167.648 6.968 167.992 6.888 168.376 6.888C168.936 6.888 169.336 7.032 169.576 7.32C169.832 7.608 169.944 7.944 169.912 8.328C169.88 8.712 169.704 9.072 169.384 9.408L162.976 15.96L163 14.352L169.72 21.528C170.088 21.928 170.272 22.336 170.272 22.752C170.288 23.168 170.152 23.52 169.864 23.808C169.592 24.08 169.184 24.216 168.64 24.216C168.176 24.216 167.8 24.12 167.512 23.928C167.24 23.736 166.936 23.456 166.6 23.088L160.12 16.272H160.072V22.296C160.072 22.904 159.912 23.376 159.592 23.712C159.288 24.048 158.832 24.216 158.224 24.216Z" fill="#181818"/>
<path d="M57.72 49.144C56.8987 49.144 56.1893 48.984 55.592 48.664C55.0053 48.3333 54.5467 47.8693 54.216 47.272C53.896 46.6747 53.736 45.96 53.736 45.128C53.736 44.3173 53.896 43.6133 54.216 43.016C54.536 42.408 54.9733 41.9333 55.528 41.592C56.0933 41.2507 56.744 41.08 57.48 41.08C58.0027 41.08 58.472 41.1707 58.888 41.352C59.304 41.5227 59.656 41.7733 59.944 42.104C60.2427 42.4347 60.4667 42.8347 60.616 43.304C60.776 43.7733 60.856 44.3013 60.856 44.888C60.856 45.0587 60.808 45.1867 60.712 45.272C60.616 45.3467 60.4773 45.384 60.296 45.384H54.728V44.536H59.992L59.736 44.744C59.736 44.168 59.6507 43.6827 59.48 43.288C59.3093 42.8827 59.0587 42.5733 58.728 42.36C58.408 42.1467 58.0027 42.04 57.512 42.04C56.968 42.04 56.504 42.168 56.12 42.424C55.7467 42.6693 55.464 43.016 55.272 43.464C55.08 43.9013 54.984 44.4133 54.984 45V45.096C54.984 46.0773 55.2187 46.824 55.688 47.336C56.168 47.848 56.8453 48.104 57.72 48.104C58.0827 48.104 58.44 48.056 58.792 47.96C59.1547 47.864 59.5067 47.704 59.848 47.48C59.9973 47.384 60.1307 47.3413 60.248 47.352C60.376 47.352 60.4773 47.3893 60.552 47.464C60.6267 47.528 60.6747 47.6133 60.696 47.72C60.728 47.816 60.7173 47.9227 60.664 48.04C60.6213 48.1573 60.5307 48.2587 60.392 48.344C60.04 48.6 59.624 48.7973 59.144 48.936C58.664 49.0747 58.1893 49.144 57.72 49.144ZM63.3716 49.112C63.1583 49.112 62.9983 49.0533 62.8916 48.936C62.785 48.8187 62.7316 48.6533 62.7316 48.44V41.768C62.7316 41.5547 62.785 41.3947 62.8916 41.288C62.9983 41.1707 63.153 41.112 63.3556 41.112C63.5583 41.112 63.713 41.1707 63.8196 41.288C63.937 41.3947 63.9956 41.5547 63.9956 41.768V43.144L63.8196 42.952C64.0436 42.3333 64.4063 41.8693 64.9076 41.56C65.4196 41.24 66.0063 41.08 66.6676 41.08C67.2863 41.08 67.7983 41.192 68.2036 41.416C68.6196 41.64 68.929 41.9813 69.1316 42.44C69.3343 42.888 69.4356 43.4587 69.4356 44.152V48.44C69.4356 48.6533 69.377 48.8187 69.2596 48.936C69.153 49.0533 68.9983 49.112 68.7956 49.112C68.5823 49.112 68.417 49.0533 68.2996 48.936C68.193 48.8187 68.1396 48.6533 68.1396 48.44V44.232C68.1396 43.5067 67.9956 42.9787 67.7076 42.648C67.4303 42.3067 66.9823 42.136 66.3636 42.136C65.649 42.136 65.0783 42.36 64.6516 42.808C64.2356 43.2453 64.0276 43.832 64.0276 44.568V48.44C64.0276 48.888 63.809 49.112 63.3716 49.112ZM75.2654 52.024C74.7 52.024 74.1454 51.9547 73.6014 51.816C73.068 51.688 72.5827 51.48 72.1454 51.192C72.0174 51.1173 71.932 51.0267 71.8894 50.92C71.8574 50.8133 71.852 50.7067 71.8734 50.6C71.8947 50.504 71.9427 50.4133 72.0174 50.328C72.092 50.2533 72.1774 50.2053 72.2734 50.184C72.38 50.1627 72.4867 50.1787 72.5934 50.232C73.0627 50.52 73.5107 50.7173 73.9374 50.824C74.364 50.9307 74.7854 50.984 75.2014 50.984C75.9587 50.984 76.5294 50.7813 76.9134 50.376C77.308 49.9707 77.5054 49.384 77.5054 48.616V46.808H77.6654C77.5054 47.4267 77.164 47.9173 76.6414 48.28C76.1294 48.6427 75.5267 48.824 74.8334 48.824C74.1187 48.824 73.5 48.664 72.9774 48.344C72.4547 48.0133 72.0494 47.5547 71.7614 46.968C71.484 46.3813 71.3454 45.704 71.3454 44.936C71.3454 44.36 71.4254 43.8373 71.5854 43.368C71.7454 42.888 71.9747 42.4827 72.2734 42.152C72.5827 41.8107 72.9507 41.5493 73.3774 41.368C73.8147 41.176 74.3 41.08 74.8334 41.08C75.5374 41.08 76.1454 41.2613 76.6574 41.624C77.1694 41.976 77.5 42.456 77.6494 43.064L77.4894 43.256V41.768C77.4894 41.5547 77.5427 41.3947 77.6494 41.288C77.7667 41.1707 77.9267 41.112 78.1294 41.112C78.3427 41.112 78.5027 41.1707 78.6094 41.288C78.716 41.3947 78.7694 41.5547 78.7694 41.768V48.44C78.7694 49.624 78.4707 50.5147 77.8734 51.112C77.2867 51.72 76.4174 52.024 75.2654 52.024ZM75.0734 47.768C75.5747 47.768 76.0067 47.656 76.3694 47.432C76.732 47.1973 77.0094 46.8667 77.2014 46.44C77.404 46.0133 77.5054 45.512 77.5054 44.936C77.5054 44.072 77.2867 43.3893 76.8494 42.888C76.412 42.376 75.82 42.12 75.0734 42.12C74.5827 42.12 74.156 42.2373 73.7934 42.472C73.4307 42.696 73.148 43.0213 72.9454 43.448C72.7534 43.864 72.6574 44.36 72.6574 44.936C72.6574 45.8 72.876 46.488 73.3134 47C73.7507 47.512 74.3374 47.768 75.0734 47.768ZM85.9974 49.112C85.784 49.112 85.624 49.0533 85.5174 48.936C85.4107 48.8187 85.3574 48.6533 85.3574 48.44V41.768C85.3574 41.5547 85.4107 41.3947 85.5174 41.288C85.624 41.1707 85.7787 41.112 85.9814 41.112C86.184 41.112 86.3387 41.1707 86.4454 41.288C86.5627 41.3947 86.6214 41.5547 86.6214 41.768V43.176L86.4454 42.952C86.648 42.3547 86.9734 41.896 87.4214 41.576C87.88 41.2453 88.424 41.08 89.0534 41.08C89.7147 41.08 90.248 41.24 90.6534 41.56C91.0694 41.8693 91.3467 42.3547 91.4854 43.016H91.2454C91.4374 42.4187 91.7787 41.9493 92.2694 41.608C92.7707 41.256 93.352 41.08 94.0134 41.08C94.6 41.08 95.08 41.192 95.4534 41.416C95.8374 41.64 96.1254 41.9813 96.3174 42.44C96.5094 42.888 96.6054 43.4587 96.6054 44.152V48.44C96.6054 48.6533 96.5467 48.8187 96.4294 48.936C96.3227 49.0533 96.1627 49.112 95.9494 49.112C95.7467 49.112 95.5867 49.0533 95.4694 48.936C95.3627 48.8187 95.3094 48.6533 95.3094 48.44V44.216C95.3094 43.5013 95.1867 42.9787 94.9414 42.648C94.696 42.3067 94.28 42.136 93.6934 42.136C93.0534 42.136 92.5467 42.36 92.1734 42.808C91.8107 43.2453 91.6294 43.8427 91.6294 44.6V48.44C91.6294 48.6533 91.5707 48.8187 91.4534 48.936C91.3467 49.0533 91.1867 49.112 90.9734 49.112C90.7707 49.112 90.6107 49.0533 90.4934 48.936C90.3867 48.8187 90.3334 48.6533 90.3334 48.44V44.216C90.3334 43.5013 90.2054 42.9787 89.9494 42.648C89.704 42.3067 89.2934 42.136 88.7174 42.136C88.0774 42.136 87.5707 42.36 87.1974 42.808C86.8347 43.2453 86.6534 43.8427 86.6534 44.6V48.44C86.6534 48.888 86.4347 49.112 85.9974 49.112ZM101.477 49.144C100.943 49.144 100.463 49.0427 100.037 48.84C99.6205 48.6267 99.2898 48.3387 99.0445 47.976C98.7992 47.6133 98.6765 47.208 98.6765 46.76C98.6765 46.184 98.8205 45.7307 99.1085 45.4C99.4072 45.0693 99.8925 44.8347 100.565 44.696C101.247 44.5573 102.175 44.488 103.349 44.488H104.069V45.336H103.365C102.501 45.336 101.818 45.3787 101.317 45.464C100.826 45.5387 100.479 45.672 100.277 45.864C100.085 46.056 99.9885 46.328 99.9885 46.68C99.9885 47.1173 100.138 47.4747 100.437 47.752C100.746 48.0293 101.162 48.168 101.685 48.168C102.111 48.168 102.485 48.0667 102.805 47.864C103.135 47.6613 103.391 47.384 103.573 47.032C103.765 46.68 103.861 46.2747 103.861 45.816V43.992C103.861 43.3307 103.727 42.856 103.461 42.568C103.194 42.2693 102.757 42.12 102.149 42.12C101.775 42.12 101.402 42.168 101.029 42.264C100.655 42.36 100.261 42.5147 99.8445 42.728C99.6952 42.8027 99.5672 42.8293 99.4605 42.808C99.3538 42.776 99.2685 42.7173 99.2045 42.632C99.1405 42.5467 99.1032 42.4507 99.0925 42.344C99.0818 42.2267 99.1032 42.1147 99.1565 42.008C99.2205 41.9013 99.3165 41.816 99.4445 41.752C99.9138 41.5173 100.378 41.3467 100.837 41.24C101.295 41.1333 101.733 41.08 102.149 41.08C102.821 41.08 103.375 41.192 103.813 41.416C104.25 41.6293 104.575 41.96 104.789 42.408C105.002 42.8453 105.109 43.4107 105.109 44.104V48.44C105.109 48.6533 105.055 48.8187 104.949 48.936C104.853 49.0533 104.709 49.112 104.517 49.112C104.314 49.112 104.159 49.0533 104.053 48.936C103.946 48.8187 103.893 48.6533 103.893 48.44V47.192H104.037C103.951 47.5973 103.786 47.944 103.541 48.232C103.306 48.52 103.013 48.744 102.661 48.904C102.309 49.064 101.914 49.144 101.477 49.144ZM107.657 49C107.518 49 107.406 48.968 107.321 48.904C107.236 48.84 107.177 48.7547 107.145 48.648C107.113 48.5413 107.113 48.424 107.145 48.296C107.177 48.168 107.246 48.0453 107.353 47.928L111.865 41.896V42.232H107.593C107.422 42.232 107.289 42.1893 107.193 42.104C107.108 42.008 107.065 41.88 107.065 41.72C107.065 41.56 107.108 41.4373 107.193 41.352C107.289 41.2667 107.422 41.224 107.593 41.224H112.505C112.665 41.224 112.793 41.256 112.889 41.32C112.996 41.384 113.065 41.4693 113.097 41.576C113.129 41.672 113.129 41.784 113.097 41.912C113.076 42.0293 113.017 42.1467 112.921 42.264L108.329 48.36V47.992H112.825C113.177 47.992 113.353 48.1573 113.353 48.488C113.353 48.648 113.305 48.776 113.209 48.872C113.124 48.9573 112.996 49 112.825 49H107.657ZM117.289 49.144C116.756 49.144 116.276 49.0427 115.849 48.84C115.433 48.6267 115.102 48.3387 114.857 47.976C114.612 47.6133 114.489 47.208 114.489 46.76C114.489 46.184 114.633 45.7307 114.921 45.4C115.22 45.0693 115.705 44.8347 116.377 44.696C117.06 44.5573 117.988 44.488 119.161 44.488H119.881V45.336H119.177C118.313 45.336 117.63 45.3787 117.129 45.464C116.638 45.5387 116.292 45.672 116.089 45.864C115.897 46.056 115.801 46.328 115.801 46.68C115.801 47.1173 115.95 47.4747 116.249 47.752C116.558 48.0293 116.974 48.168 117.497 48.168C117.924 48.168 118.297 48.0667 118.617 47.864C118.948 47.6613 119.204 47.384 119.385 47.032C119.577 46.68 119.673 46.2747 119.673 45.816V43.992C119.673 43.3307 119.54 42.856 119.273 42.568C119.006 42.2693 118.569 42.12 117.961 42.12C117.588 42.12 117.214 42.168 116.841 42.264C116.468 42.36 116.073 42.5147 115.657 42.728C115.508 42.8027 115.38 42.8293 115.273 42.808C115.166 42.776 115.081 42.7173 115.017 42.632C114.953 42.5467 114.916 42.4507 114.905 42.344C114.894 42.2267 114.916 42.1147 114.969 42.008C115.033 41.9013 115.129 41.816 115.257 41.752C115.726 41.5173 116.19 41.3467 116.649 41.24C117.108 41.1333 117.545 41.08 117.961 41.08C118.633 41.08 119.188 41.192 119.625 41.416C120.062 41.6293 120.388 41.96 120.601 42.408C120.814 42.8453 120.921 43.4107 120.921 44.104V48.44C120.921 48.6533 120.868 48.8187 120.761 48.936C120.665 49.0533 120.521 49.112 120.329 49.112C120.126 49.112 119.972 49.0533 119.865 48.936C119.758 48.8187 119.705 48.6533 119.705 48.44V47.192H119.849C119.764 47.5973 119.598 47.944 119.353 48.232C119.118 48.52 118.825 48.744 118.473 48.904C118.121 49.064 117.726 49.144 117.289 49.144ZM125.693 49.144C124.925 49.144 124.339 48.9093 123.933 48.44C123.528 47.9707 123.325 47.2987 123.325 46.424V38.264C123.325 38.0507 123.379 37.8907 123.485 37.784C123.592 37.6667 123.752 37.608 123.965 37.608C124.168 37.608 124.328 37.6667 124.445 37.784C124.563 37.8907 124.621 38.0507 124.621 38.264V46.328C124.621 46.904 124.733 47.336 124.957 47.624C125.192 47.9013 125.533 48.04 125.981 48.04C126.077 48.04 126.163 48.0347 126.237 48.024C126.312 48.0133 126.387 48.008 126.461 48.008C126.579 47.9973 126.659 48.024 126.701 48.088C126.755 48.152 126.781 48.28 126.781 48.472C126.781 48.664 126.739 48.808 126.653 48.904C126.568 49 126.429 49.064 126.237 49.096C126.152 49.1067 126.061 49.1173 125.965 49.128C125.869 49.1387 125.779 49.144 125.693 49.144ZM128.7 49.08C128.486 49.08 128.326 49.0213 128.22 48.904C128.113 48.776 128.06 48.6 128.06 48.376V41.832C128.06 41.608 128.113 41.4373 128.22 41.32C128.326 41.2027 128.486 41.144 128.7 41.144C128.902 41.144 129.062 41.2027 129.18 41.32C129.297 41.4373 129.356 41.608 129.356 41.832V48.376C129.356 48.6 129.297 48.776 129.18 48.904C129.073 49.0213 128.913 49.08 128.7 49.08ZM128.7 39.352C128.433 39.352 128.225 39.2827 128.076 39.144C127.926 38.9947 127.852 38.7973 127.852 38.552C127.852 38.296 127.926 38.104 128.076 37.976C128.225 37.8373 128.433 37.768 128.7 37.768C128.977 37.768 129.185 37.8373 129.324 37.976C129.473 38.104 129.548 38.296 129.548 38.552C129.548 38.7973 129.473 38.9947 129.324 39.144C129.185 39.2827 128.977 39.352 128.7 39.352ZM136.544 51.992C136.33 51.992 136.17 51.9333 136.064 51.816C135.957 51.7093 135.904 51.5493 135.904 51.336V41.768C135.904 41.5547 135.957 41.3947 136.064 41.288C136.17 41.1707 136.325 41.112 136.528 41.112C136.741 41.112 136.901 41.1707 137.008 41.288C137.125 41.3947 137.184 41.5547 137.184 41.768V43.288L137.008 43.064C137.178 42.456 137.514 41.976 138.016 41.624C138.528 41.2613 139.136 41.08 139.84 41.08C140.533 41.08 141.136 41.2453 141.648 41.576C142.17 41.896 142.57 42.36 142.848 42.968C143.136 43.5653 143.28 44.28 143.28 45.112C143.28 45.9333 143.136 46.648 142.848 47.256C142.57 47.8533 142.176 48.3173 141.664 48.648C141.152 48.9787 140.544 49.144 139.84 49.144C139.136 49.144 138.533 48.968 138.032 48.616C137.53 48.2533 137.189 47.7733 137.008 47.176H137.2V51.336C137.2 51.5493 137.141 51.7093 137.024 51.816C136.906 51.9333 136.746 51.992 136.544 51.992ZM139.568 48.104C140.058 48.104 140.48 47.9867 140.832 47.752C141.194 47.5173 141.472 47.176 141.664 46.728C141.866 46.28 141.968 45.7413 141.968 45.112C141.968 44.1413 141.749 43.4 141.312 42.888C140.885 42.376 140.304 42.12 139.568 42.12C139.088 42.12 138.666 42.2373 138.304 42.472C137.941 42.696 137.658 43.032 137.456 43.48C137.264 43.9173 137.168 44.4613 137.168 45.112C137.168 46.072 137.386 46.8133 137.824 47.336C138.261 47.848 138.842 48.104 139.568 48.104ZM145.872 49.08C145.658 49.08 145.498 49.0213 145.392 48.904C145.285 48.776 145.232 48.6 145.232 48.376V41.832C145.232 41.608 145.285 41.4373 145.392 41.32C145.498 41.2027 145.658 41.144 145.872 41.144C146.074 41.144 146.234 41.2027 146.352 41.32C146.469 41.4373 146.528 41.608 146.528 41.832V48.376C146.528 48.6 146.469 48.776 146.352 48.904C146.245 49.0213 146.085 49.08 145.872 49.08ZM145.872 39.352C145.605 39.352 145.397 39.2827 145.248 39.144C145.098 38.9947 145.024 38.7973 145.024 38.552C145.024 38.296 145.098 38.104 145.248 37.976C145.397 37.8373 145.605 37.768 145.872 37.768C146.149 37.768 146.357 37.8373 146.496 37.976C146.645 38.104 146.72 38.296 146.72 38.552C146.72 38.7973 146.645 38.9947 146.496 39.144C146.357 39.2827 146.149 39.352 145.872 39.352ZM152.07 49.144C151.462 49.144 150.95 49.0373 150.534 48.824C150.129 48.6 149.825 48.28 149.622 47.864C149.42 47.4373 149.318 46.92 149.318 46.312V42.232H148.246C148.065 42.232 147.926 42.1893 147.83 42.104C147.734 42.008 147.686 41.88 147.686 41.72C147.686 41.56 147.734 41.4373 147.83 41.352C147.926 41.2667 148.065 41.224 148.246 41.224H149.318V39.384C149.318 39.1707 149.377 39.0107 149.494 38.904C149.612 38.7867 149.772 38.728 149.974 38.728C150.177 38.728 150.332 38.7867 150.438 38.904C150.556 39.0107 150.614 39.1707 150.614 39.384V41.224H152.63C152.812 41.224 152.95 41.2667 153.046 41.352C153.142 41.4373 153.19 41.56 153.19 41.72C153.19 41.88 153.142 42.008 153.046 42.104C152.95 42.1893 152.812 42.232 152.63 42.232H150.614V46.184C150.614 46.792 150.742 47.256 150.998 47.576C151.254 47.8853 151.67 48.04 152.246 48.04C152.449 48.04 152.62 48.0187 152.758 47.976C152.908 47.9333 153.03 47.912 153.126 47.912C153.222 47.9013 153.302 47.9333 153.366 48.008C153.43 48.0827 153.462 48.2107 153.462 48.392C153.462 48.52 153.436 48.6373 153.382 48.744C153.34 48.8507 153.26 48.9253 153.142 48.968C153.014 49.0107 152.844 49.048 152.63 49.08C152.428 49.1227 152.241 49.144 152.07 49.144ZM157.168 49.144C156.688 49.144 156.203 49.0853 155.712 48.968C155.232 48.8507 154.784 48.648 154.368 48.36C154.261 48.2853 154.187 48.2 154.144 48.104C154.101 47.9973 154.085 47.896 154.096 47.8C154.117 47.6933 154.16 47.6027 154.224 47.528C154.299 47.4533 154.384 47.4107 154.48 47.4C154.587 47.3787 154.704 47.4 154.832 47.464C155.248 47.72 155.648 47.9013 156.032 48.008C156.427 48.104 156.816 48.152 157.2 48.152C157.808 48.152 158.267 48.04 158.576 47.816C158.885 47.592 159.04 47.288 159.04 46.904C159.04 46.6053 158.939 46.3707 158.736 46.2C158.533 46.0187 158.213 45.88 157.776 45.784L156.32 45.464C155.648 45.3253 155.147 45.0853 154.816 44.744C154.496 44.4027 154.336 43.96 154.336 43.416C154.336 42.936 154.459 42.5253 154.704 42.184C154.96 41.832 155.317 41.56 155.776 41.368C156.235 41.176 156.768 41.08 157.376 41.08C157.845 41.08 158.288 41.144 158.704 41.272C159.131 41.3893 159.515 41.5813 159.856 41.848C159.963 41.9227 160.032 42.0133 160.064 42.12C160.107 42.216 160.112 42.3173 160.08 42.424C160.059 42.52 160.011 42.6053 159.936 42.68C159.861 42.744 159.771 42.7813 159.664 42.792C159.557 42.8027 159.445 42.7707 159.328 42.696C159.008 42.4827 158.683 42.328 158.352 42.232C158.021 42.1253 157.696 42.072 157.376 42.072C156.779 42.072 156.325 42.1893 156.016 42.424C155.707 42.6587 155.552 42.968 155.552 43.352C155.552 43.6507 155.648 43.896 155.84 44.088C156.032 44.28 156.331 44.4187 156.736 44.504L158.192 44.808C158.885 44.9573 159.403 45.1973 159.744 45.528C160.096 45.848 160.272 46.2853 160.272 46.84C160.272 47.544 159.989 48.104 159.424 48.52C158.859 48.936 158.107 49.144 157.168 49.144ZM164.695 49.144C164.162 49.144 163.682 49.0427 163.255 48.84C162.839 48.6267 162.509 48.3387 162.263 47.976C162.018 47.6133 161.895 47.208 161.895 46.76C161.895 46.184 162.039 45.7307 162.327 45.4C162.626 45.0693 163.111 44.8347 163.783 44.696C164.466 44.5573 165.394 44.488 166.567 44.488H167.287V45.336H166.583C165.719 45.336 165.037 45.3787 164.535 45.464C164.045 45.5387 163.698 45.672 163.495 45.864C163.303 46.056 163.207 46.328 163.207 46.68C163.207 47.1173 163.357 47.4747 163.655 47.752C163.965 48.0293 164.381 48.168 164.903 48.168C165.33 48.168 165.703 48.0667 166.023 47.864C166.354 47.6613 166.61 47.384 166.791 47.032C166.983 46.68 167.079 46.2747 167.079 45.816V43.992C167.079 43.3307 166.946 42.856 166.679 42.568C166.413 42.2693 165.975 42.12 165.367 42.12C164.994 42.12 164.621 42.168 164.247 42.264C163.874 42.36 163.479 42.5147 163.063 42.728C162.914 42.8027 162.786 42.8293 162.679 42.808C162.573 42.776 162.487 42.7173 162.423 42.632C162.359 42.5467 162.322 42.4507 162.311 42.344C162.301 42.2267 162.322 42.1147 162.375 42.008C162.439 41.9013 162.535 41.816 162.663 41.752C163.133 41.5173 163.597 41.3467 164.055 41.24C164.514 41.1333 164.951 41.08 165.367 41.08C166.039 41.08 166.594 41.192 167.031 41.416C167.469 41.6293 167.794 41.96 168.007 42.408C168.221 42.8453 168.327 43.4107 168.327 44.104V48.44C168.327 48.6533 168.274 48.8187 168.167 48.936C168.071 49.0533 167.927 49.112 167.735 49.112C167.533 49.112 167.378 49.0533 167.271 48.936C167.165 48.8187 167.111 48.6533 167.111 48.44V47.192H167.255C167.17 47.5973 167.005 47.944 166.759 48.232C166.525 48.52 166.231 48.744 165.879 48.904C165.527 49.064 165.133 49.144 164.695 49.144ZM173.1 49.144C172.332 49.144 171.745 48.9093 171.34 48.44C170.934 47.9707 170.732 47.2987 170.732 46.424V38.264C170.732 38.0507 170.785 37.8907 170.892 37.784C170.998 37.6667 171.158 37.608 171.372 37.608C171.574 37.608 171.734 37.6667 171.852 37.784C171.969 37.8907 172.028 38.0507 172.028 38.264V46.328C172.028 46.904 172.14 47.336 172.364 47.624C172.598 47.9013 172.94 48.04 173.388 48.04C173.484 48.04 173.569 48.0347 173.644 48.024C173.718 48.0133 173.793 48.008 173.868 48.008C173.985 47.9973 174.065 48.024 174.108 48.088C174.161 48.152 174.188 48.28 174.188 48.472C174.188 48.664 174.145 48.808 174.06 48.904C173.974 49 173.836 49.064 173.644 49.096C173.558 49.1067 173.468 49.1173 173.372 49.128C173.276 49.1387 173.185 49.144 173.1 49.144ZM177.914 49.144C177.381 49.144 176.901 49.0427 176.474 48.84C176.058 48.6267 175.727 48.3387 175.482 47.976C175.237 47.6133 175.114 47.208 175.114 46.76C175.114 46.184 175.258 45.7307 175.546 45.4C175.845 45.0693 176.33 44.8347 177.002 44.696C177.685 44.5573 178.613 44.488 179.786 44.488H180.506V45.336H179.802C178.938 45.336 178.255 45.3787 177.754 45.464C177.263 45.5387 176.917 45.672 176.714 45.864C176.522 46.056 176.426 46.328 176.426 46.68C176.426 47.1173 176.575 47.4747 176.874 47.752C177.183 48.0293 177.599 48.168 178.122 48.168C178.549 48.168 178.922 48.0667 179.242 47.864C179.573 47.6613 179.829 47.384 180.01 47.032C180.202 46.68 180.298 46.2747 180.298 45.816V43.992C180.298 43.3307 180.165 42.856 179.898 42.568C179.631 42.2693 179.194 42.12 178.586 42.12C178.213 42.12 177.839 42.168 177.466 42.264C177.093 42.36 176.698 42.5147 176.282 42.728C176.133 42.8027 176.005 42.8293 175.898 42.808C175.791 42.776 175.706 42.7173 175.642 42.632C175.578 42.5467 175.541 42.4507 175.53 42.344C175.519 42.2267 175.541 42.1147 175.594 42.008C175.658 41.9013 175.754 41.816 175.882 41.752C176.351 41.5173 176.815 41.3467 177.274 41.24C177.733 41.1333 178.17 41.08 178.586 41.08C179.258 41.08 179.813 41.192 180.25 41.416C180.687 41.6293 181.013 41.96 181.226 42.408C181.439 42.8453 181.546 43.4107 181.546 44.104V48.44C181.546 48.6533 181.493 48.8187 181.386 48.936C181.29 49.0533 181.146 49.112 180.954 49.112C180.751 49.112 180.597 49.0533 180.49 48.936C180.383 48.8187 180.33 48.6533 180.33 48.44V47.192H180.474C180.389 47.5973 180.223 47.944 179.978 48.232C179.743 48.52 179.45 48.744 179.098 48.904C178.746 49.064 178.351 49.144 177.914 49.144ZM184.606 49.112C184.393 49.112 184.228 49.0533 184.11 48.936C184.004 48.8187 183.95 48.6533 183.95 48.44V41.768C183.95 41.5547 184.004 41.3947 184.11 41.288C184.217 41.1707 184.372 41.112 184.574 41.112C184.777 41.112 184.932 41.1707 185.038 41.288C185.156 41.3947 185.214 41.5547 185.214 41.768V43.064H185.054C185.225 42.4347 185.55 41.9493 186.03 41.608C186.51 41.2667 187.102 41.0853 187.806 41.064C187.966 41.0533 188.094 41.0907 188.19 41.176C188.286 41.2507 188.34 41.384 188.35 41.576C188.361 41.7573 188.318 41.9013 188.222 42.008C188.126 42.1147 187.977 42.1787 187.774 42.2L187.518 42.232C186.793 42.296 186.233 42.5307 185.838 42.936C185.454 43.3307 185.262 43.8747 185.262 44.568V48.44C185.262 48.6533 185.204 48.8187 185.086 48.936C184.98 49.0533 184.82 49.112 184.606 49.112ZM194.866 49.112C194.663 49.112 194.503 49.0533 194.386 48.936C194.279 48.8187 194.226 48.6533 194.226 48.44V42.232H193.202C193.031 42.232 192.892 42.1893 192.786 42.104C192.69 42.008 192.642 41.88 192.642 41.72C192.642 41.56 192.69 41.4373 192.786 41.352C192.892 41.2667 193.031 41.224 193.202 41.224H194.578L194.226 41.56V40.952C194.226 39.9387 194.471 39.1653 194.962 38.632C195.463 38.0987 196.194 37.7893 197.154 37.704L197.618 37.656C197.767 37.6453 197.884 37.672 197.97 37.736C198.066 37.8 198.124 37.88 198.146 37.976C198.178 38.072 198.183 38.1733 198.162 38.28C198.14 38.376 198.092 38.4613 198.018 38.536C197.943 38.6107 197.852 38.6533 197.746 38.664L197.378 38.696C196.727 38.7493 196.252 38.9467 195.954 39.288C195.666 39.6293 195.522 40.1307 195.522 40.792V41.464L195.33 41.224H197.25C197.431 41.224 197.57 41.2667 197.666 41.352C197.762 41.4373 197.81 41.56 197.81 41.72C197.81 41.88 197.762 42.008 197.666 42.104C197.57 42.1893 197.431 42.232 197.25 42.232H195.522V48.44C195.522 48.888 195.303 49.112 194.866 49.112ZM201.508 49.144C200.974 49.144 200.494 49.0427 200.068 48.84C199.652 48.6267 199.321 48.3387 199.076 47.976C198.83 47.6133 198.708 47.208 198.708 46.76C198.708 46.184 198.852 45.7307 199.14 45.4C199.438 45.0693 199.924 44.8347 200.596 44.696C201.278 44.5573 202.206 44.488 203.38 44.488H204.1V45.336H203.396C202.532 45.336 201.849 45.3787 201.348 45.464C200.857 45.5387 200.51 45.672 200.308 45.864C200.116 46.056 200.02 46.328 200.02 46.68C200.02 47.1173 200.169 47.4747 200.468 47.752C200.777 48.0293 201.193 48.168 201.716 48.168C202.142 48.168 202.516 48.0667 202.836 47.864C203.166 47.6613 203.422 47.384 203.604 47.032C203.796 46.68 203.892 46.2747 203.892 45.816V43.992C203.892 43.3307 203.758 42.856 203.492 42.568C203.225 42.2693 202.788 42.12 202.18 42.12C201.806 42.12 201.433 42.168 201.06 42.264C200.686 42.36 200.292 42.5147 199.876 42.728C199.726 42.8027 199.598 42.8293 199.492 42.808C199.385 42.776 199.3 42.7173 199.236 42.632C199.172 42.5467 199.134 42.4507 199.124 42.344C199.113 42.2267 199.134 42.1147 199.188 42.008C199.252 41.9013 199.348 41.816 199.476 41.752C199.945 41.5173 200.409 41.3467 200.868 41.24C201.326 41.1333 201.764 41.08 202.18 41.08C202.852 41.08 203.406 41.192 203.844 41.416C204.281 41.6293 204.606 41.96 204.82 42.408C205.033 42.8453 205.14 43.4107 205.14 44.104V48.44C205.14 48.6533 205.086 48.8187 204.98 48.936C204.884 49.0533 204.74 49.112 204.548 49.112C204.345 49.112 204.19 49.0533 204.084 48.936C203.977 48.8187 203.924 48.6533 203.924 48.44V47.192H204.068C203.982 47.5973 203.817 47.944 203.572 48.232C203.337 48.52 203.044 48.744 202.692 48.904C202.34 49.064 201.945 49.144 201.508 49.144ZM213.8 51.992C213.587 51.992 213.421 51.9333 213.304 51.816C213.197 51.7093 213.144 51.5493 213.144 51.336V47.176H213.32C213.149 47.7733 212.813 48.2533 212.312 48.616C211.811 48.968 211.208 49.144 210.504 49.144C209.811 49.144 209.203 48.9787 208.68 48.648C208.168 48.3173 207.768 47.8533 207.48 47.256C207.203 46.648 207.064 45.9333 207.064 45.112C207.064 44.28 207.203 43.5653 207.48 42.968C207.768 42.36 208.168 41.896 208.68 41.576C209.203 41.2453 209.811 41.08 210.504 41.08C211.208 41.08 211.811 41.2613 212.312 41.624C212.824 41.976 213.165 42.456 213.336 43.064L213.16 43.288V41.768C213.16 41.5547 213.213 41.3947 213.32 41.288C213.437 41.1707 213.597 41.112 213.8 41.112C214.013 41.112 214.173 41.1707 214.28 41.288C214.387 41.3947 214.44 41.5547 214.44 41.768V51.336C214.44 51.5493 214.381 51.7093 214.264 51.816C214.157 51.9333 214.003 51.992 213.8 51.992ZM210.776 48.104C211.256 48.104 211.677 47.9867 212.04 47.752C212.403 47.5173 212.68 47.176 212.872 46.728C213.075 46.28 213.176 45.7413 213.176 45.112C213.176 44.1413 212.957 43.4 212.52 42.888C212.093 42.376 211.512 42.12 210.776 42.12C210.285 42.12 209.859 42.2373 209.496 42.472C209.144 42.696 208.867 43.032 208.664 43.48C208.472 43.9173 208.376 44.4613 208.376 45.112C208.376 46.072 208.595 46.8133 209.032 47.336C209.469 47.848 210.051 48.104 210.776 48.104ZM219.32 49.144C218.787 49.144 218.307 49.0427 217.88 48.84C217.464 48.6267 217.134 48.3387 216.888 47.976C216.643 47.6133 216.52 47.208 216.52 46.76C216.52 46.184 216.664 45.7307 216.952 45.4C217.251 45.0693 217.736 44.8347 218.408 44.696C219.091 44.5573 220.019 44.488 221.192 44.488H221.912V45.336H221.208C220.344 45.336 219.662 45.3787 219.16 45.464C218.67 45.5387 218.323 45.672 218.12 45.864C217.928 46.056 217.832 46.328 217.832 46.68C217.832 47.1173 217.982 47.4747 218.28 47.752C218.59 48.0293 219.006 48.168 219.528 48.168C219.955 48.168 220.328 48.0667 220.648 47.864C220.979 47.6613 221.235 47.384 221.416 47.032C221.608 46.68 221.704 46.2747 221.704 45.816V43.992C221.704 43.3307 221.571 42.856 221.304 42.568C221.038 42.2693 220.6 42.12 219.992 42.12C219.619 42.12 219.246 42.168 218.872 42.264C218.499 42.36 218.104 42.5147 217.688 42.728C217.539 42.8027 217.411 42.8293 217.304 42.808C217.198 42.776 217.112 42.7173 217.048 42.632C216.984 42.5467 216.947 42.4507 216.936 42.344C216.926 42.2267 216.947 42.1147 217 42.008C217.064 41.9013 217.16 41.816 217.288 41.752C217.758 41.5173 218.222 41.3467 218.68 41.24C219.139 41.1333 219.576 41.08 219.992 41.08C220.664 41.08 221.219 41.192 221.656 41.416C222.094 41.6293 222.419 41.96 222.632 42.408C222.846 42.8453 222.952 43.4107 222.952 44.104V48.44C222.952 48.6533 222.899 48.8187 222.792 48.936C222.696 49.0533 222.552 49.112 222.36 49.112C222.158 49.112 222.003 49.0533 221.896 48.936C221.79 48.8187 221.736 48.6533 221.736 48.44V47.192H221.88C221.795 47.5973 221.63 47.944 221.384 48.232C221.15 48.52 220.856 48.744 220.504 48.904C220.152 49.064 219.758 49.144 219.32 49.144ZM228.477 49.144C227.869 49.144 227.357 49.0373 226.941 48.824C226.535 48.6 226.231 48.28 226.029 47.864C225.826 47.4373 225.725 46.92 225.725 46.312V42.232H224.653C224.471 42.232 224.333 42.1893 224.237 42.104C224.141 42.008 224.093 41.88 224.093 41.72C224.093 41.56 224.141 41.4373 224.237 41.352C224.333 41.2667 224.471 41.224 224.653 41.224H225.725V39.384C225.725 39.1707 225.783 39.0107 225.901 38.904C226.018 38.7867 226.178 38.728 226.381 38.728C226.583 38.728 226.738 38.7867 226.845 38.904C226.962 39.0107 227.021 39.1707 227.021 39.384V41.224H229.037C229.218 41.224 229.357 41.2667 229.453 41.352C229.549 41.4373 229.597 41.56 229.597 41.72C229.597 41.88 229.549 42.008 229.453 42.104C229.357 42.1893 229.218 42.232 229.037 42.232H227.021V46.184C227.021 46.792 227.149 47.256 227.405 47.576C227.661 47.8853 228.077 48.04 228.653 48.04C228.855 48.04 229.026 48.0187 229.165 47.976C229.314 47.9333 229.437 47.912 229.533 47.912C229.629 47.9013 229.709 47.9333 229.773 48.008C229.837 48.0827 229.869 48.2107 229.869 48.392C229.869 48.52 229.842 48.6373 229.789 48.744C229.746 48.8507 229.666 48.9253 229.549 48.968C229.421 49.0107 229.25 49.048 229.037 49.08C228.834 49.1227 228.647 49.144 228.477 49.144ZM234.312 52.024C233.747 52.024 233.192 51.9547 232.648 51.816C232.115 51.688 231.63 51.48 231.192 51.192C231.064 51.1173 230.979 51.0267 230.936 50.92C230.904 50.8133 230.899 50.7067 230.92 50.6C230.942 50.504 230.99 50.4133 231.064 50.328C231.139 50.2533 231.224 50.2053 231.32 50.184C231.427 50.1627 231.534 50.1787 231.64 50.232C232.11 50.52 232.558 50.7173 232.984 50.824C233.411 50.9307 233.832 50.984 234.248 50.984C235.006 50.984 235.576 50.7813 235.96 50.376C236.355 49.9707 236.552 49.384 236.552 48.616V46.808H236.712C236.552 47.4267 236.211 47.9173 235.688 48.28C235.176 48.6427 234.574 48.824 233.88 48.824C233.166 48.824 232.547 48.664 232.024 48.344C231.502 48.0133 231.096 47.5547 230.808 46.968C230.531 46.3813 230.392 45.704 230.392 44.936C230.392 44.36 230.472 43.8373 230.632 43.368C230.792 42.888 231.022 42.4827 231.32 42.152C231.63 41.8107 231.998 41.5493 232.424 41.368C232.862 41.176 233.347 41.08 233.88 41.08C234.584 41.08 235.192 41.2613 235.704 41.624C236.216 41.976 236.547 42.456 236.696 43.064L236.536 43.256V41.768C236.536 41.5547 236.59 41.3947 236.696 41.288C236.814 41.1707 236.974 41.112 237.176 41.112C237.39 41.112 237.55 41.1707 237.656 41.288C237.763 41.3947 237.816 41.5547 237.816 41.768V48.44C237.816 49.624 237.518 50.5147 236.92 51.112C236.334 51.72 235.464 52.024 234.312 52.024ZM234.12 47.768C234.622 47.768 235.054 47.656 235.416 47.432C235.779 47.1973 236.056 46.8667 236.248 46.44C236.451 46.0133 236.552 45.512 236.552 44.936C236.552 44.072 236.334 43.3893 235.896 42.888C235.459 42.376 234.867 42.12 234.12 42.12C233.63 42.12 233.203 42.2373 232.84 42.472C232.478 42.696 232.195 43.0213 231.992 43.448C231.8 43.864 231.704 44.36 231.704 44.936C231.704 45.8 231.923 46.488 232.36 47C232.798 47.512 233.384 47.768 234.12 47.768ZM240.887 49.08C240.674 49.08 240.514 49.0213 240.407 48.904C240.301 48.776 240.247 48.6 240.247 48.376V41.832C240.247 41.608 240.301 41.4373 240.407 41.32C240.514 41.2027 240.674 41.144 240.887 41.144C241.09 41.144 241.25 41.2027 241.367 41.32C241.485 41.4373 241.543 41.608 241.543 41.832V48.376C241.543 48.6 241.485 48.776 241.367 48.904C241.261 49.0213 241.101 49.08 240.887 49.08ZM240.887 39.352C240.621 39.352 240.413 39.2827 240.263 39.144C240.114 38.9947 240.039 38.7973 240.039 38.552C240.039 38.296 240.114 38.104 240.263 37.976C240.413 37.8373 240.621 37.768 240.887 37.768C241.165 37.768 241.373 37.8373 241.511 37.976C241.661 38.104 241.735 38.296 241.735 38.552C241.735 38.7973 241.661 38.9947 241.511 39.144C241.373 39.2827 241.165 39.352 240.887 39.352ZM244.606 49.112C244.393 49.112 244.233 49.0533 244.126 48.936C244.019 48.8187 243.966 48.6533 243.966 48.44V41.768C243.966 41.5547 244.019 41.3947 244.126 41.288C244.233 41.1707 244.387 41.112 244.59 41.112C244.793 41.112 244.947 41.1707 245.054 41.288C245.171 41.3947 245.23 41.5547 245.23 41.768V43.144L245.054 42.952C245.278 42.3333 245.641 41.8693 246.142 41.56C246.654 41.24 247.241 41.08 247.902 41.08C248.521 41.08 249.033 41.192 249.438 41.416C249.854 41.64 250.163 41.9813 250.366 42.44C250.569 42.888 250.67 43.4587 250.67 44.152V48.44C250.67 48.6533 250.611 48.8187 250.494 48.936C250.387 49.0533 250.233 49.112 250.03 49.112C249.817 49.112 249.651 49.0533 249.534 48.936C249.427 48.8187 249.374 48.6533 249.374 48.44V44.232C249.374 43.5067 249.23 42.9787 248.942 42.648C248.665 42.3067 248.217 42.136 247.598 42.136C246.883 42.136 246.313 42.36 245.886 42.808C245.47 43.2453 245.262 43.832 245.262 44.568V48.44C245.262 48.888 245.043 49.112 244.606 49.112ZM255.508 49.144C254.974 49.144 254.494 49.0427 254.068 48.84C253.652 48.6267 253.321 48.3387 253.076 47.976C252.83 47.6133 252.708 47.208 252.708 46.76C252.708 46.184 252.852 45.7307 253.14 45.4C253.438 45.0693 253.924 44.8347 254.596 44.696C255.278 44.5573 256.206 44.488 257.38 44.488H258.1V45.336H257.396C256.532 45.336 255.849 45.3787 255.348 45.464C254.857 45.5387 254.51 45.672 254.308 45.864C254.116 46.056 254.02 46.328 254.02 46.68C254.02 47.1173 254.169 47.4747 254.468 47.752C254.777 48.0293 255.193 48.168 255.716 48.168C256.142 48.168 256.516 48.0667 256.836 47.864C257.166 47.6613 257.422 47.384 257.604 47.032C257.796 46.68 257.892 46.2747 257.892 45.816V43.992C257.892 43.3307 257.758 42.856 257.492 42.568C257.225 42.2693 256.788 42.12 256.18 42.12C255.806 42.12 255.433 42.168 255.06 42.264C254.686 42.36 254.292 42.5147 253.876 42.728C253.726 42.8027 253.598 42.8293 253.492 42.808C253.385 42.776 253.3 42.7173 253.236 42.632C253.172 42.5467 253.134 42.4507 253.124 42.344C253.113 42.2267 253.134 42.1147 253.188 42.008C253.252 41.9013 253.348 41.816 253.476 41.752C253.945 41.5173 254.409 41.3467 254.868 41.24C255.326 41.1333 255.764 41.08 256.18 41.08C256.852 41.08 257.406 41.192 257.844 41.416C258.281 41.6293 258.606 41.96 258.82 42.408C259.033 42.8453 259.14 43.4107 259.14 44.104V48.44C259.14 48.6533 259.086 48.8187 258.98 48.936C258.884 49.0533 258.74 49.112 258.548 49.112C258.345 49.112 258.19 49.0533 258.084 48.936C257.977 48.8187 257.924 48.6533 257.924 48.44V47.192H258.068C257.982 47.5973 257.817 47.944 257.572 48.232C257.337 48.52 257.044 48.744 256.692 48.904C256.34 49.064 255.945 49.144 255.508 49.144ZM269.605 49.144C268.901 49.144 268.293 48.9627 267.781 48.6C267.28 48.2373 266.944 47.752 266.773 47.144L266.949 46.968V48.44C266.949 48.6533 266.89 48.8187 266.773 48.936C266.666 49.0533 266.512 49.112 266.309 49.112C266.096 49.112 265.936 49.0533 265.829 48.936C265.722 48.8187 265.669 48.6533 265.669 48.44V38.264C265.669 38.0507 265.722 37.8907 265.829 37.784C265.936 37.6667 266.096 37.608 266.309 37.608C266.512 37.608 266.672 37.6667 266.789 37.784C266.906 37.8907 266.965 38.0507 266.965 38.264V43.032H266.773C266.954 42.4347 267.296 41.96 267.797 41.608C268.298 41.256 268.901 41.08 269.605 41.08C270.309 41.08 270.917 41.2453 271.429 41.576C271.941 41.896 272.336 42.36 272.613 42.968C272.901 43.5653 273.045 44.28 273.045 45.112C273.045 45.9333 272.901 46.648 272.613 47.256C272.336 47.8533 271.936 48.3173 271.413 48.648C270.901 48.9787 270.298 49.144 269.605 49.144ZM269.333 48.104C269.824 48.104 270.245 47.9867 270.597 47.752C270.96 47.5173 271.237 47.176 271.429 46.728C271.632 46.28 271.733 45.7413 271.733 45.112C271.733 44.1413 271.514 43.4 271.077 42.888C270.65 42.376 270.069 42.12 269.333 42.12C268.853 42.12 268.432 42.2373 268.069 42.472C267.706 42.696 267.424 43.032 267.221 43.48C267.029 43.9173 266.933 44.4613 266.933 45.112C266.933 46.072 267.152 46.8133 267.589 47.336C268.026 47.848 268.608 48.104 269.333 48.104ZM275.637 49.08C275.424 49.08 275.264 49.0213 275.157 48.904C275.051 48.776 274.997 48.6 274.997 48.376V41.832C274.997 41.608 275.051 41.4373 275.157 41.32C275.264 41.2027 275.424 41.144 275.637 41.144C275.84 41.144 276 41.2027 276.117 41.32C276.235 41.4373 276.293 41.608 276.293 41.832V48.376C276.293 48.6 276.235 48.776 276.117 48.904C276.011 49.0213 275.851 49.08 275.637 49.08ZM275.637 39.352C275.371 39.352 275.163 39.2827 275.013 39.144C274.864 38.9947 274.789 38.7973 274.789 38.552C274.789 38.296 274.864 38.104 275.013 37.976C275.163 37.8373 275.371 37.768 275.637 37.768C275.915 37.768 276.123 37.8373 276.261 37.976C276.411 38.104 276.485 38.296 276.485 38.552C276.485 38.7973 276.411 38.9947 276.261 39.144C276.123 39.2827 275.915 39.352 275.637 39.352ZM278.86 49C278.721 49 278.609 48.968 278.524 48.904C278.439 48.84 278.38 48.7547 278.348 48.648C278.316 48.5413 278.316 48.424 278.348 48.296C278.38 48.168 278.449 48.0453 278.556 47.928L283.068 41.896V42.232H278.796C278.625 42.232 278.492 42.1893 278.396 42.104C278.311 42.008 278.268 41.88 278.268 41.72C278.268 41.56 278.311 41.4373 278.396 41.352C278.492 41.2667 278.625 41.224 278.796 41.224H283.708C283.868 41.224 283.996 41.256 284.092 41.32C284.199 41.384 284.268 41.4693 284.3 41.576C284.332 41.672 284.332 41.784 284.3 41.912C284.279 42.0293 284.22 42.1467 284.124 42.264L279.532 48.36V47.992H284.028C284.38 47.992 284.556 48.1573 284.556 48.488C284.556 48.648 284.508 48.776 284.412 48.872C284.327 48.9573 284.199 49 284.028 49H278.86ZM288.926 49.144C288.233 49.144 287.625 48.9787 287.102 48.648C286.59 48.3173 286.19 47.8533 285.902 47.256C285.625 46.648 285.486 45.9333 285.486 45.112C285.486 44.28 285.625 43.5653 285.902 42.968C286.19 42.36 286.59 41.896 287.102 41.576C287.625 41.2453 288.233 41.08 288.926 41.08C289.63 41.08 290.233 41.256 290.734 41.608C291.235 41.96 291.571 42.4347 291.742 43.032H291.566V38.264C291.566 38.0507 291.619 37.8907 291.726 37.784C291.843 37.6667 292.009 37.608 292.222 37.608C292.425 37.608 292.579 37.6667 292.686 37.784C292.803 37.8907 292.862 38.0507 292.862 38.264V48.44C292.862 48.6533 292.809 48.8187 292.702 48.936C292.595 49.0533 292.435 49.112 292.222 49.112C292.019 49.112 291.859 49.0533 291.742 48.936C291.635 48.8187 291.582 48.6533 291.582 48.44V46.92L291.758 47.144C291.587 47.752 291.246 48.2373 290.734 48.6C290.233 48.9627 289.63 49.144 288.926 49.144ZM289.198 48.104C289.678 48.104 290.099 47.9867 290.462 47.752C290.825 47.5173 291.102 47.176 291.294 46.728C291.497 46.28 291.598 45.7413 291.598 45.112C291.598 44.1413 291.379 43.4 290.942 42.888C290.515 42.376 289.934 42.12 289.198 42.12C288.707 42.12 288.281 42.2373 287.918 42.472C287.566 42.696 287.289 43.032 287.086 43.48C286.894 43.9173 286.798 44.4613 286.798 45.112C286.798 46.072 287.017 46.8133 287.454 47.336C287.891 47.848 288.473 48.104 289.198 48.104ZM297.742 49.144C297.209 49.144 296.729 49.0427 296.302 48.84C295.886 48.6267 295.555 48.3387 295.31 47.976C295.065 47.6133 294.942 47.208 294.942 46.76C294.942 46.184 295.086 45.7307 295.374 45.4C295.673 45.0693 296.158 44.8347 296.83 44.696C297.513 44.5573 298.441 44.488 299.614 44.488H300.334V45.336H299.63C298.766 45.336 298.083 45.3787 297.582 45.464C297.091 45.5387 296.745 45.672 296.542 45.864C296.35 46.056 296.254 46.328 296.254 46.68C296.254 47.1173 296.403 47.4747 296.702 47.752C297.011 48.0293 297.427 48.168 297.95 48.168C298.377 48.168 298.75 48.0667 299.07 47.864C299.401 47.6613 299.657 47.384 299.838 47.032C300.03 46.68 300.126 46.2747 300.126 45.816V43.992C300.126 43.3307 299.993 42.856 299.726 42.568C299.459 42.2693 299.022 42.12 298.414 42.12C298.041 42.12 297.667 42.168 297.294 42.264C296.921 42.36 296.526 42.5147 296.11 42.728C295.961 42.8027 295.833 42.8293 295.726 42.808C295.619 42.776 295.534 42.7173 295.47 42.632C295.406 42.5467 295.369 42.4507 295.358 42.344C295.347 42.2267 295.369 42.1147 295.422 42.008C295.486 41.9013 295.582 41.816 295.71 41.752C296.179 41.5173 296.643 41.3467 297.102 41.24C297.561 41.1333 297.998 41.08 298.414 41.08C299.086 41.08 299.641 41.192 300.078 41.416C300.515 41.6293 300.841 41.96 301.054 42.408C301.267 42.8453 301.374 43.4107 301.374 44.104V48.44C301.374 48.6533 301.321 48.8187 301.214 48.936C301.118 49.0533 300.974 49.112 300.782 49.112C300.579 49.112 300.425 49.0533 300.318 48.936C300.211 48.8187 300.158 48.6533 300.158 48.44V47.192H300.302C300.217 47.5973 300.051 47.944 299.806 48.232C299.571 48.52 299.278 48.744 298.926 48.904C298.574 49.064 298.179 49.144 297.742 49.144ZM304.291 51.704C304.205 51.8427 304.099 51.928 303.971 51.96C303.843 51.992 303.715 51.9813 303.587 51.928C303.459 51.8747 303.368 51.784 303.315 51.656C303.261 51.528 303.272 51.3627 303.347 51.16C303.635 50.4453 303.869 49.736 304.051 49.032C304.243 48.3387 304.387 47.64 304.483 46.936C304.579 46.232 304.627 45.5173 304.627 44.792C304.627 44.0667 304.573 43.352 304.467 42.648C304.371 41.944 304.227 41.2453 304.035 40.552C303.853 39.848 303.624 39.1387 303.347 38.424C303.272 38.2213 303.261 38.056 303.315 37.928C303.379 37.7893 303.469 37.6987 303.587 37.656C303.704 37.6027 303.827 37.592 303.955 37.624C304.093 37.656 304.205 37.7413 304.291 37.88C304.877 38.968 305.309 40.0933 305.587 41.256C305.864 42.4187 306.003 43.5973 306.003 44.792C306.003 45.592 305.939 46.3867 305.811 47.176C305.693 47.9547 305.507 48.7227 305.251 49.48C305.005 50.2373 304.685 50.9787 304.291 51.704Z" fill="#7B7B7B"/>
<defs>
<clipPath id="clip0_0_7">
<rect width="38" height="38" fill="white" transform="translate(0 9)"/>
</clipPath>
</defs>
</svg>
